<svg t="1721624071609" class="icon" viewBox="0 0 1027 1024" version="1.1" xmlns="http://www.w3.org/2000/svg" p-id="33018" width="200" height="200"><path d="M0 166.144h1026.702v694.3H0v-694.3z" fill="#DE2910" p-id="33019"></path><path d="M170.268 245.077l21.647 67.584h70.343l-56.832 41.814 21.646 67.726-56.832-41.813-56.832 41.813 21.646-67.726-56.832-41.814h70.343l21.703-67.584z m183.211-35.3l-1.365 23.382 21.418 8.59-22.442 5.831-1.508 23.382-12.373-19.94-22.329 5.831 14.791-17.977-12.373-19.825 21.418 8.59 14.763-17.863z m78.933 75.748l-10.552 20.85 16.384 16.612-22.813-3.783-10.667 20.85-3.555-23.268-22.813-3.67 20.623-10.666-3.499-23.126 16.27 16.612 20.622-10.41z m-23.608 94.863l6.997 22.328h23.154l-18.688 13.74 6.997 22.214-18.688-13.852-18.688 13.738 7.111-22.1-18.688-13.74h23.154l7.339-22.328z m-55.439 71.367l-1.479 23.381 21.419 8.59-22.329 5.831-1.48 23.382-12.372-19.826-22.443 5.831 14.791-17.977-12.373-19.826 21.532 8.59 14.734-17.976z" fill="#FFDE00" p-id="33020"></path></svg>