<svg t="1721624182737" class="icon" viewBox="0 0 1024 1024" version="1.1" xmlns="http://www.w3.org/2000/svg" p-id="39278" width="200" height="200"><path d="M0.1024 0h1024v1024H0.1024z" fill="#FFFFFF" p-id="39279"></path><path d="M513.150493 515.29434m-205.789468 18.764523a206.6432 206.6432 0 1 0 411.578935-37.529047 206.6432 206.6432 0 1 0-411.578935 37.529047Z" fill="#CE1126" p-id="39280"></path><path d="M336.384 408.576a103.2192 103.2192 0 1 0 176.5376 107.008 103.1168 103.1168 0 0 1 176.4352 106.9056A206.336 206.336 0 1 1 336.384 408.576" fill="#003F87" p-id="39281"></path><path d="M73.95328 348.89728l116.0192-171.86816 26.80832 18.10432L100.7616 367.0016zM115.24096 376.77056l116.11136-171.80672 26.80832 18.1248-116.10112 171.79648zM156.5696 404.6848l26.8288 18.0224 115.9168-171.9296-26.8288-18.0224-115.9168 171.9296zM789.20704 687.60576l53.76-79.60576 26.81856 18.11456-53.76 79.59552zM727.00928 779.8272l53.62688-79.68768 26.84928 18.06336-53.62688 79.68768zM830.43328 715.49952l53.79072-79.5648 26.80832 18.11456-53.79072 79.5648zM768.3072 807.6288l26.7264 18.1248 53.76-79.6672-26.8288-18.0224-53.6576 79.5648zM871.80288 743.31136l53.6576-79.6672 26.74688 18.0224-53.6576 79.6672zM809.5744 835.60448l53.57568-79.72864 26.85952 18.05312-53.56544 79.7184zM884.224 394.752l26.8288-17.92-115.9168-171.9296-26.8288 18.0224 115.9168 171.8272zM810.77248 195.34848l26.85952-18.1248 53.79072 79.72864-26.85952 18.1248zM871.8336 287.5392l26.80832-18.1248 53.8112 79.5648-26.79808 18.1248zM727.04 250.7264l26.75712-18.0224 53.6576 79.6672-26.75712 18.0224zM789.18656 343.07072l26.74688-18.0224 53.68832 79.63648-26.73664 18.0224zM156.54912 626.08384l26.8288-18.09408 115.95776 171.90912-26.8288 18.09408zM74.01472 681.65632l26.74688-18.03264 115.95776 171.90912-26.74688 18.03264zM115.93728 654.336l26.84928-18.1248 53.79072 79.7184-26.85952 18.1248zM231.2192 825.6512l26.8288-18.0224-53.6576-79.5648-26.8288 18.0224 53.6576 79.5648z" fill="" p-id="39282"></path></svg>